<?xml version="1.0" encoding="UTF-8" standalone="no"?>
<svg xmlns="http://www.w3.org/2000/svg" width="200" height="200" viewBox="0 0 200 200" stroke="#9fa6bc"> 
  <g id="gears">
    <circle cx="100" cy="100" r="75" fill="none" stroke-width="6"></circle>
    <circle cx="100" cy="100" r="90" stroke-width="0" stroke-dasharray="20" fill="none">
      <animate attributeName="stroke-width" to="16" begin="1s" dur="1s" fill="freeze"></animate>
      <animateTransform attributeName="transform" attributeType="XML" type="rotate" begin="2s" from="0 100 100" to="360 100 100" dur="20s" repeatCount="indefinite"> </animateTransform>
    </circle>
  </g>
  <g id="beetle" stroke-linecap="round" stroke-width="3" fill="none" transform="rotate(15, 100, 100)">
    <path id="body" d="M 100 90 v 63 M 100 90 l 20 -5 v 30 a 1 2 0 0 1 -40 0 M 100 90 l -20 -5 v 30 M 80 83 a 1 .5 0 0 1 40 0 M 85 75 a 1 .8 0 0 1 32 0"></path>
    <path d="M 80 82 l -8 -6 l -2 -16" stroke-linejoin="round">
      <animate attributeName="d" values="M 80 82 l -8 -6 l -2 -16;M 80 82 l -6 6  l 0 -16;M 80 82 l -8 -6 l -2 -16" begin="0.5" dur="1s" repeatCount="indefinite"></animate>
    </path>
    <path d="M 80 95 l -8 6 l -2 16" stroke-linejoin="round">
      <animate attributeName="d" values="M 80 95 l -8 6 l -2 16;M 80 95 l -6 -6  l 0 16;M 80 95 l -8 6 l -2 16" begin="0.5" dur="1s" repeatCount="indefinite"></animate>
    </path>
    <path d="M 80 120 l -8 6 l -2 16" stroke-linejoin="round">
      <animate attributeName="d" values="M 80 120 l -8 6 l -2 16;M 80 120 l -6 -6  l 0 16;M 80 120 l -8 6 l -2 16" begin="0.5" dur="1s" repeatCount="indefinite"></animate>
    </path>
    <path d="M 120 82 l 8 -6 l 2 -16" stroke-linejoin="round">
      <animate attributeName="d" values="M 120 82 l 8 -6 l 2 -16;M 120 82 l 6 6  l 0 -16;M 120 82 l 8 -6 l 2 -16" begin="0s" dur="1s" repeatCount="indefinite"></animate>
    </path>
    <path d="M 120 95 l 8 6 l 2 16" stroke-linejoin="round">
      <animate attributeName="d" values="M 120 95 l 8 6 l 2 16;M 120 95 l 6 -6  l 0 16;M 120 95 l 8 6 l 2 16" begin="0s" dur="1s" repeatCount="indefinite"></animate>
    </path>
    <path d="M 120 120 l 8 6 l 2 16" stroke-linejoin="round">
      <animate attributeName="d" values="M 120 120 l 8 6 l 2 16;M 120 120 l 6 -6  l 0 16;M 120 120 l 8 6 l 2 16" begin="0s" dur="1s" repeatCount="indefinite"></animate>
    </path>
    <path d="M 90 65 l -3 -6 l 3 -6" stroke-linejoin="round">
      <animate attributeName="d" values="M 90 65 l -3 -6 l 3 -6;M 90 65 l -3 -6 l 1 -6;M 90 65 l -3 -6 l 3 -6" begin="0s" dur="1s" repeatCount="indefinite"></animate>
    </path>
    <path d="M 112 65 l 3 -6 l -3 -6" stroke-linejoin="round">
      <animate attributeName="d" values="M 112 65 l 3 -6 l -3 -6;M 112 65 l 3 -6 l -1 -6;M 112 65 l 3 -6 l -3 -6" begin="0s" dur="1s" repeatCount="indefinite"></animate>
    </path>
    <animateTransform attributeName="transform" attributeType="XML" type="rotate" begin="0s" values="15 100 100;20 100 100;15 100 100" dur="1s" repeatCount="indefinite">              </animateTransform>
  </g>
</svg>