<?xml version="1.0" encoding="UTF-8" standalone="no"?>
<svg xmlns="http://www.w3.org/2000/svg" width="200" height="200" viewBox="0 0 200 200" stroke="#9fa6bc"> 
  <g id="gears">
    <circle cx="100" cy="100" r="75" fill="none" stroke-width="6"></circle>
    <circle cx="100" cy="100" r="90" stroke-width="16" stroke-dasharray="20" fill="none"></circle>
  </g>
  <g id="beetle" stroke-linecap="round" stroke-width="3" fill="none" transform="rotate(20, 100, 100)">
    <path id="body" d="M 100 90 v 63 M 100 90 l 20 -5 v 30 a 1 2 0 0 1 -40 0 M 100 90 l -20 -5 v 30 M 80 83 a 1 .5 0 0 1 40 0 M 85 75 a 1 .8 0 0 1 32 0"></path>
    <path id="leg_lf" d="M 80 82 l -8 -6 l 4 -16"></path>
    <path id="leg_rf" d="M 120 82 l 8 -6 l -4 -16"></path>
    <path id="leg_lm" d="M 80 95 l -8 8 l -4 16"></path>
    <path id="leg_rm" d="M 120 95 l 8 8 l 4 16"></path>
    <path id="leg_lb" d="M 80 120 l -8 8 l -4 16"></path>
    <path id="leg_rb" d="M 120 120 l 8 8 l 4 16"></path>
    <path id="antenna_l" d="M 90 63 l -3 -6 l 3 -6"></path>
    <path id="antenna_r" d="M 110 63 l 3 -6 l -3 -6"></path>
  </g>
</svg>